HIERARCHY
ROOT Hips
{
	OFFSET 0.000000 0.000000 0.000000
	CHANNELS 6 Xposition Yposition Zposition Xrotation Yrotation Zrotation
	JOINT LeftUpLeg_virtual
	{
		OFFSET 0.000000 0.000000 0.000000
		CHANNELS 3 Xrotation Yrotation Zrotation
		JOINT LeftUpLeg
		{
			OFFSET 10.205400 -3.823500 0.155100
			CHANNELS 3 Xrotation Yrotation Zrotation
			JOINT LeftLeg
			{
				OFFSET 0.708757 -12.982077 0.567790
				CHANNELS 3 Xrotation Yrotation Zrotation
				JOINT LeftFoot
				{
					OFFSET -0.708756 -10.717838 -2.184338
					CHANNELS 3 Xrotation Yrotation Zrotation
					JOINT LeftToeBase
					{
						OFFSET 0.108149 -7.191104 7.560241
						CHANNELS 3 Xrotation Yrotation Zrotation
						JOINT LeftToe_End
						{
							OFFSET 0.070230 0.081724 4.490308
							CHANNELS 3 Xrotation Yrotation Zrotation
							End Site
							{
								OFFSET 0 0 0
							}
						}
					}
				}
			}
		}
	}
	JOINT RightUpLeg_virtual
	{
		OFFSET 0.000000 0.000000 0.000000
		CHANNELS 3 Xrotation Yrotation Zrotation
		JOINT RightUpLeg
		{
			OFFSET -10.205400 -3.823500 0.005500
			CHANNELS 3 Xrotation Yrotation Zrotation
			JOINT RightLeg
			{
				OFFSET -0.708756 -12.982134 0.610632
				CHANNELS 3 Xrotation Yrotation Zrotation
				JOINT RightFoot
				{
					OFFSET 0.708754 -10.717769 -1.945823
					CHANNELS 3 Xrotation Yrotation Zrotation
					JOINT RightToeBase
					{
						OFFSET -0.108140 -7.191069 7.372968
						CHANNELS 3 Xrotation Yrotation Zrotation
						JOINT RightToe_End
						{
							OFFSET -0.070227 0.081735 4.479403
							CHANNELS 3 Xrotation Yrotation Zrotation
							End Site
							{
								OFFSET 0 0 0
							}
						}
					}
				}
			}
		}
	}
	JOINT Spine_virtual
	{
		OFFSET 0.000000 0.000000 0.000000
		CHANNELS 3 Xrotation Yrotation Zrotation
		JOINT Spine
		{
			OFFSET 0.000000 6.876099 0.125700
			CHANNELS 3 Xrotation Yrotation Zrotation
			JOINT Spine1
			{
				OFFSET 0.000000 5.730043 0.104720
				CHANNELS 3 Xrotation Yrotation Zrotation
				JOINT Spine1_split
				{
					OFFSET 0.000000 5.730043 0.104720
					CHANNELS 3 Xrotation Yrotation Zrotation
					JOINT Spine2
					{
						OFFSET 0.000000 5.730043 0.104720
						CHANNELS 3 Xrotation Yrotation Zrotation
						JOINT Neck_virtual
						{
							OFFSET 0.000000 0.000000 0.000000
							CHANNELS 3 Xrotation Yrotation Zrotation
							JOINT Neck
							{
								OFFSET 0.000000 10.314075 0.188496
								CHANNELS 3 Xrotation Yrotation Zrotation
								JOINT Head
								{
									OFFSET 0.000000 7.643700 -2.377400
									CHANNELS 3 Xrotation Yrotation Zrotation
									JOINT HeadTop_End
									{
										OFFSET 0.000000 43.788605 -13.619600
										CHANNELS 3 Xrotation Yrotation Zrotation
										End Site
										{
											OFFSET 0 0 0
										}
									}
								}
							}
						}
						JOINT LeftShoulder_virtual
						{
							OFFSET 0.000000 0.000000 0.000000
							CHANNELS 3 Xrotation Yrotation Zrotation
							JOINT LeftShoulder
							{
								OFFSET 2.196100 4.412489 0.087492
								CHANNELS 3 Xrotation Yrotation Zrotation
								JOINT LeftShoulder_split
								{
									OFFSET 2.196100 4.412489 0.087492
									CHANNELS 3 Xrotation Yrotation Zrotation
									JOINT LeftArm
									{
										OFFSET 8.771219 -2.981674 -0.026999
										CHANNELS 3 Xrotation Yrotation Zrotation
										JOINT LeftForeArm
										{
											OFFSET 8.512804 0.000000 -0.000000
											CHANNELS 3 Xrotation Yrotation Zrotation
											JOINT LeftHand
											{
												OFFSET 18.484802 0.000000 -0.000000
												CHANNELS 3 Xrotation Yrotation Zrotation
												End Site
												{
													OFFSET 0 0 0
												}
											}
										}
									}
								}
							}
						}
						JOINT RightShoulder_virtual
						{
							OFFSET 0.000000 0.000000 0.000000
							CHANNELS 3 Xrotation Yrotation Zrotation
							JOINT RightShoulder
							{
								OFFSET -2.196100 4.412496 0.070690
								CHANNELS 3 Xrotation Yrotation Zrotation
								JOINT RightShoulder_split
								{
									OFFSET -2.196100 4.412496 0.070690
									CHANNELS 3 Xrotation Yrotation Zrotation
									JOINT RightArm
									{
										OFFSET -8.771282 -2.981682 -0.094208
										CHANNELS 3 Xrotation Yrotation Zrotation
										JOINT RightForeArm
										{
											OFFSET -8.494598 0.000000 0.000000
											CHANNELS 3 Xrotation Yrotation Zrotation
											JOINT RightHand
											{
												OFFSET -18.483803 0.000000 0.000001
												CHANNELS 3 Xrotation Yrotation Zrotation
												End Site
												{
													OFFSET 0 0 0
												}
											}
										}
									}
								}
							}
						}
					}
				}
			}
		}
	}
}
MOTION
Frames: 6
Frame Time: 0.03333333
2.931546 33.487080 2.454418 0.000000 0.000000 0.000000 -4.066868 9.596571 7.056665 -14.732397 -3.295705 -2.350935 25.418211 5.736729 -2.659961 -8.605608 11.495403 -2.506754 -1.919214 0.201331 -1.328989 0.000000 0.000000 0.000000 -4.621929 11.823977 6.872257 20.977008 -12.420411 -16.225447 15.731428 -11.752688 0.514618 -18.393399 -34.390706 28.145406 -2.824567 -0.674553 -1.556703 0.000000 0.000000 0.000000 -1.542763 8.863640 6.396281 4.417850 2.589770 12.123808 7.438546 6.058243 1.296034 0.722653 -0.548565 0.292134 0.000000 0.000000 0.000000 0.984098 5.683356 2.899414 -13.593080 -10.590499 -4.352221 5.279211 -11.887086 -4.484684 0.000000 0.000000 0.000000 0.737159 5.675121 1.957856 -0.146950 1.875173 18.997095 -0.272286 -0.190435 -2.634629 -37.727813 2.626463 -9.880956 -22.508624 -29.608098 8.519635 0.000000 0.000000 0.000000 -0.973330 5.220199 2.523260 6.222437 1.797853 -1.026762 0.454648 2.960159 1.667466 38.091436 -49.064305 67.993591 -13.352944 31.008799 39.625599 0.000000 0.000000 0.000000 
2.673656 33.272957 2.690592 0.000000 0.000000 0.000000 -3.209858 20.232415 5.807867 -19.249734 -8.076151 -2.764658 25.754862 3.700823 -2.934987 -6.488472 9.654489 -3.928499 -2.421415 0.634464 -1.450560 0.000000 0.000000 0.000000 -3.951872 22.018571 5.699018 23.907930 -18.317630 -12.697731 14.418478 -12.347530 0.978035 -20.047363 -34.188116 29.253922 -4.220138 -0.929759 -0.978415 0.000000 0.000000 0.000000 0.070617 18.444127 5.265607 1.840033 4.075303 11.185839 6.593909 7.363781 0.030121 0.729716 -0.537260 0.152263 0.000000 0.000000 0.000000 0.523921 6.924315 1.708192 -17.008008 -15.999452 -1.301164 7.911611 -17.564144 -2.828378 0.000000 0.000000 0.000000 0.170047 7.012724 0.438036 -1.401145 8.118093 17.457113 -0.325688 -0.731186 -2.897293 -50.500937 6.279447 -13.437503 -27.353279 -29.899635 6.861315 0.000000 0.000000 0.000000 -1.038014 6.664835 1.134014 5.906106 1.852069 -1.226868 -0.347613 3.279311 2.443400 34.532781 -52.980203 70.846581 -13.624164 35.876457 38.742622 0.000000 0.000000 0.000000 
2.373899 33.056793 2.956984 0.000000 0.000000 0.000000 -1.636331 29.199110 4.400225 -24.613649 -12.268423 -3.803253 26.954855 2.212065 -3.329481 -3.770629 8.171731 -4.142602 -2.311507 0.924372 -1.831695 0.000000 0.000000 0.000000 -2.332597 31.000644 4.403419 25.689728 -23.918286 -9.290609 13.701975 -12.618576 1.626283 -22.559982 -33.642295 28.806412 -4.883079 -1.071398 -0.575957 0.000000 0.000000 0.000000 1.707301 26.677636 4.032631 -0.445521 5.572734 10.094317 5.962718 8.497916 -1.372916 0.554722 -0.636749 0.102077 0.000000 0.000000 0.000000 0.365790 8.036078 0.251548 -20.389219 -20.958564 2.004687 10.368053 -21.929791 -0.845529 0.000000 0.000000 0.000000 -0.096383 8.145941 -1.150471 -2.087598 12.235079 13.658161 0.465761 -1.489926 -2.179753 -59.372280 7.581661 -18.763163 -31.772227 -28.745476 4.045522 0.000000 0.000000 0.000000 -0.804307 7.906501 -0.337022 5.622379 2.863402 -0.037332 -1.176205 3.843867 2.917409 26.951243 -51.260481 68.742903 -10.277334 39.283737 34.229770 0.000000 0.000000 0.000000 
2.063735 32.871487 3.118107 0.000000 0.000000 0.000000 0.466552 36.430569 2.849883 -29.808223 -15.704927 -5.507209 28.019617 1.355984 -3.590344 -1.283745 7.308498 -3.183795 -1.577881 1.066988 -2.248435 0.000000 0.000000 0.000000 -0.050379 38.403770 2.891342 26.625645 -28.915749 -6.473997 13.508244 -12.585062 2.294041 -25.640704 -32.884356 26.974823 -4.728906 -1.099662 -0.390688 0.000000 0.000000 0.000000 3.167734 33.785292 2.738747 -2.389421 6.936949 8.795276 5.663357 9.466553 -2.589618 0.448699 -0.936089 0.010390 0.000000 0.000000 0.000000 0.538250 8.966263 -1.074298 -23.894261 -25.198629 4.720969 12.352253 -25.058255 1.133202 0.000000 0.000000 0.000000 -0.105842 9.115622 -2.391115 -2.270735 14.455964 8.086091 1.187754 -2.369964 -0.921946 -64.525446 8.084915 -24.693448 -35.589841 -26.918814 0.093258 0.000000 0.000000 0.000000 -0.238841 8.945322 -1.569085 5.303398 4.687504 2.136837 -2.105405 3.797896 3.138883 17.617991 -44.203936 62.816259 -4.045493 39.604814 26.888324 0.000000 0.000000 0.000000 
1.776473 32.726635 3.227545 0.000000 0.000000 0.000000 2.774714 42.018559 1.246630 -34.274764 -18.533850 -7.719937 28.568974 0.526031 -3.588476 0.669219 6.776924 -2.282150 -0.868718 1.073770 -2.499166 0.000000 0.000000 0.000000 2.433890 44.237428 1.237209 26.963254 -32.924230 -4.372046 13.710646 -12.116412 2.773407 -28.314621 -31.946263 24.745649 -4.629641 -1.069863 -0.445261 0.000000 0.000000 0.000000 4.660428 39.747186 1.286458 -3.961975 8.074374 7.347112 5.662970 10.238904 -3.415761 0.273253 -0.975079 -0.049928 0.000000 0.000000 0.000000 1.118194 9.718733 -2.005634 -27.522384 -28.401253 6.201743 13.846511 -27.123772 2.840017 0.000000 0.000000 0.000000 0.111424 9.940553 -3.097876 -2.104516 15.169879 1.525833 1.235616 -2.485396 0.288772 -65.978302 9.252829 -29.722675 -38.840499 -26.470267 -5.215668 0.000000 0.000000 0.000000 0.557673 9.720285 -2.385997 4.919782 6.984202 4.490052 -3.192395 2.870040 2.803452 8.970747 -33.932926 55.263815 2.274362 36.765115 19.478675 0.000000 0.000000 0.000000 
1.537999 32.607826 3.243202 0.000000 0.000000 0.000000 5.020648 46.433805 -0.380239 -37.968479 -20.911198 -10.158090 28.538557 -0.435348 -3.284750 2.004309 6.221925 -1.889984 -1.090303 0.967024 -2.209903 0.000000 0.000000 0.000000 4.911146 48.758880 -0.593284 26.963268 -35.765398 -2.833292 14.219467 -11.167683 2.959538 -29.833310 -30.917787 22.981261 -5.020579 -1.034894 -0.662364 0.000000 0.000000 0.000000 6.158979 45.037858 -0.330608 -5.048734 8.951859 5.871554 5.858236 10.815891 -3.860239 0.384558 -1.067630 -0.191830 0.000000 0.000000 0.000000 2.031482 10.267692 -2.472299 -30.901808 -30.352439 6.324562 14.911285 -28.065922 3.971678 0.000000 0.000000 0.000000 0.388693 10.607162 -3.298476 -1.817755 15.270669 -5.122507 0.365011 -1.797224 1.220678 -65.326593 12.675305 -33.023620 -41.457168 -28.314235 -11.678568 0.000000 0.000000 0.000000 1.429393 10.255854 -2.817249 4.559470 9.160545 6.222156 -4.525025 1.097990 2.447023 1.531667 -23.377642 47.336783 6.605149 32.209212 13.873947 0.000000 0.000000 0.000000 
